
<svg width="4532px" height="2559px" viewBox="0 0 4532 2559" version="1.1" xmlns="http://www.w3.org/2000/svg" xmlns:xlink="http://www.w3.org/1999/xlink">
    <!-- Generator: Sketch 44 (41411) - http://www.bohemiancoding.com/sketch -->
    <desc>Created with Sketch.</desc>
    <defs></defs>
    <g id="Page-1" stroke="none" stroke-width="1" fill="none" fill-rule="evenodd">
        <g id="landing_page">
            <g id="Background">
                <rect id="Rectangle-path" fill="#0C0C0D" fill-rule="nonzero" x="0" y="4" width="4532" height="2436"></rect>
                <polygon id="Shape" fill="#8559A5" fill-rule="nonzero" opacity="0.35" points="1258.3 7.41361399 1328.47447 7.41361399 1524.4 2016 992.2 2016 1188.14315 7.23295359"></polygon>
                <polygon id="Shape" fill="#8559A5" fill-rule="nonzero" opacity="0.35" points="479.45 4.66399434 549.379994 4.66399434 745.5 2016 213.4 2016 409.4741 5.89047341"></polygon>
                <polygon id="Shape" fill="#8559A5" fill-rule="nonzero" opacity="0.35" points="2268.8 7.31735997 2338.96508 7.31735997 2534.9 2016 2002.7 2016 2198.57456 7.93615376"></polygon>
                <polygon id="Shape" fill="#8559A5" fill-rule="nonzero" opacity="0.35" points="3214.1 2.60110373 3283.80504 2.60110373 3480.2 2016 2948 2016 3144.1308 5.30918551"></polygon>
                <polygon id="Shape" fill="#8559A5" fill-rule="nonzero" opacity="0.35" points="4058.1 4.5235841 4125.42688 4.5235841 4324.2 2016 3792 2016 3988.20743 4.5235841"></polygon>
                <rect id="Rectangle-path" fill="#060809" fill-rule="nonzero" x="0" y="2152" width="4532" height="407"></rect>
                <rect id="Rectangle-path" fill="#232122" fill-rule="nonzero" x="0" y="2016" width="4512" height="136"></rect>
                <g id="Rectangle-path" transform="translate(0.000000, 158.000000)">
                    <g id="path-1-link" fill="#4C4C4D">
                        <rect id="path-1" x="0" y="0.9" width="4532" height="16"></rect>
                    </g>
                    <rect stroke="#40403F" stroke-width="3" x="1.5" y="2.4" width="4529" height="13"></rect>
                </g>
                <g id="Artwork_2" transform="translate(89.000000, 122.000000)" fill-rule="nonzero">
                    <g id="Group">
                        <path d="M58.8,3 C58.8,3 -13.1,34.3 3.3,130.4 L79.9,198.1 C79.9,198.1 75.8,88.8 147,52.5 L58.8,3 Z" id="Shape" fill="#1D211D"></path>
                        <polygon id="Shape" fill="#111411" points="210.2 122.2 147 52.4 72 168.6 120.2 235.2 175.1 233.2"></polygon>
                        <polygon id="Shape" fill="#2D302D" points="162.7 64.1 142.5 0.3 29.1 186.3 97.4 202.2"></polygon>
                        <polygon id="Shape" fill="#2D302D" points="162.1 67 187.3 21.8 242.5 165.7 193.5 154.3"></polygon>
                        <polygon id="Shape" fill="#2D302D" points="194.7 149.1 240.5 174.5 161.3 292.7 140.4 239.8"></polygon>
                        <polygon id="Shape" fill="#2D302D" points="141.4 232.7 99.5 186.5 41.5 209.5 140.1 317.5"></polygon>
                    </g>
                </g>
                <g id="Artwork_2_3_" transform="translate(4251.000000, 53.000000)" fill-rule="nonzero">
                    <g id="Group">
                        <path d="M112.7,0.8 C112.7,0.8 191.1,3.2 211.5,98.6 L165.5,189.8 C165.5,189.8 128.8,86.8 49.2,79.4 L112.7,0.8 Z" id="Shape" fill="#1D211D"></path>
                        <polygon id="Shape" fill="#111411" points="16.3 167.6 49.1 79.4 161.8 159.5 141.7 239.2 89.9 257.7"></polygon>
                        <polygon id="Shape" fill="#2D302D" points="38.8 96.1 33.9 29.3 208.2 160 150.6 200.1"></polygon>
                        <polygon id="Shape" fill="#2D302D" points="40.5 98.6 0.2 65.9 2.3 220.1 43.7 191.3"></polygon>
                        <polygon id="Shape" fill="#2D302D" points="40.6 186.9 7.5 227.4 124.9 307.9 124.7 251"></polygon>
                        <polygon id="Shape" fill="#2D302D" points="121.1 244.7 142.9 186.3 205.3 186.2 153.7 323"></polygon>
                    </g>
                </g>
                <g id="Artwork_2_5_" transform="translate(2823.000000, 9.000000)" fill-rule="nonzero">
                    <g id="Group">
                        <path d="M112.7,0.6 C112.7,0.6 191.1,3 211.5,98.4 L165.4,189.6 C165.4,189.6 128.7,86.6 49.1,79.2 L112.7,0.6 Z" id="Shape" fill="#1D211D"></path>
                        <polygon id="Shape" fill="#111411" points="16.3 167.4 49.1 79.2 161.8 159.2 141.7 239 89.9 257.5"></polygon>
                        <polygon id="Shape" fill="#2D302D" points="38.8 95.9 33.9 29.1 208.2 159.8 150.6 199.9"></polygon>
                        <polygon id="Shape" fill="#2D302D" points="40.5 98.3 0.2 65.7 2.3 219.8 43.7 191.1"></polygon>
                        <polygon id="Shape" fill="#2D302D" points="40.6 186.6 7.5 227.2 124.9 307.7 124.7 250.8"></polygon>
                        <polygon id="Shape" fill="#2D302D" points="121.1 244.5 142.9 186.1 205.3 186 153.7 322.8"></polygon>
                    </g>
                </g>
                <g id="Rectangle-path" transform="translate(0.000000, 60.000000)">
                    <g id="path-2-link" fill="#4C4C4D">
                        <rect id="path-2" x="0" y="0" width="4532" height="16"></rect>
                    </g>
                    <rect stroke="#40403F" stroke-width="3" x="1.5" y="1.5" width="4529" height="13"></rect>
                </g>
                <g id="Artwork_2_2_" transform="translate(3962.000000, 4.000000)" fill-rule="nonzero">
                    <g id="Group">
                        <path d="M129.405911,0.260308341 C129.405911,0.260308341 187.120454,1.35574381 186.212315,0.260308341 C184.009752,-2.39651405 206.463414,30.5132123 212.8,53.6 L172,147.3 C172,147.3 129.5,46.5 49.6,43.7 C49.6,43.7 70.5538131,15.5810727 81.5638631,0.260308341 C81.683568,0.0937358879 129.405911,0.260308341 129.405911,0.260308341 Z" id="Shape" fill="#1D211D"></path>
                        <polygon id="Shape" fill="#111411" points="21.8 133.6 49.6 43.7 166.6 117.2 151.1 198 100.5 219.4"></polygon>
                        <polygon id="Shape" fill="#2D302D" points="40.2 60.9 32.3338006 0.165623439 36.3705657 0.165623439 39.8939307 0.0140465403 213 115.1 157.8 158.4"></polygon>
                        <polygon id="Shape" fill="#2D302D" points="42.1 63.3 0 33 10.9 186.7 50.5 155.7"></polygon>
                        <polygon id="Shape" fill="#2D302D" points="47.2 151.4 16.4 193.8 138.2 267.5 134.8 210.7"></polygon>
                        <polygon id="Shape" fill="#2D302D" points="130.9 204.7 149.3 145.1 211.6 141.4 167.9 281"></polygon>
                    </g>
                </g>
                <g id="Artwork_2_1_" transform="translate(557.000000, 0.000000)" fill-rule="nonzero">
                    <g id="Group">
                        <path d="M294.843219,2.92957778 C257.91648,5.21956602 155.951119,3.57675747 155.951119,2.92957778 C155.951119,2.92957778 149.94612,2.994149 141.367372,2.92957778 C136.901646,2.89596479 125.795392,4.03632485 125.795392,2.92957778 C125.795392,2.92957778 113.5,19.8 113.5,19.8 C113.5,19.8 221.9,5.4 264.8,73 C264.8,73 284.828813,27.813044 294.843219,5.21956602 C298.49548,-3.02028932 294.843219,2.92957778 294.843219,2.92957778 Z" id="Shape" fill="#1D211D"></path>
                        <polygon id="Shape" fill="#111411" points="201.3 142.4 264.8 72.9 142.2 9.1 80.4 63.4 87.5 117.9"></polygon>
                        <polygon id="Shape" fill="#2D302D" points="254.7 89.7 316.3 63.6 194.457574 4.17225903 149.290561 4.17225903 115.538936 4.78021065 111.1 37.6"></polygon>
                        <polygon id="Shape" fill="#2D302D" points="251.7 89.3 299.1 110.2 161 178.6 167.7 128.7"></polygon>
                        <polygon id="Shape" fill="#2D302D" points="173.1 129.5 152.1 177.4 26.9 109.7 77.6 83.9"></polygon>
                        <polygon id="Shape" fill="#2D302D" points="84.8 84.2 126.9 38.2 110.178919 5.34868799 100.367277 3.2858755 79.8241776 3.2858755 0.3 90.9"></polygon>
                    </g>
                </g>
                <g id="Artwork_2_4_" transform="translate(1473.000000, 0.000000)" fill-rule="nonzero">
                    <g id="Group">
                        <path d="M121.20859,4.2364704 C121.20859,4.2364704 51.1199417,3.23366139 49.8805853,4.2364704 C35.6096011,15.78365 21.8409486,32.8028833 11.1,57.8 L38.5,156.3 C38.5,156.3 94.6,62.4 174.1,70.7 C174.1,70.7 127.646817,-17.669537 139.260113,4.42284726 C139.308767,4.51540343 121.20859,4.2364704 121.20859,4.2364704 Z" id="Shape" fill="#1D211D"></path>
                        <polygon id="Shape" fill="#111411" points="189 163.5 174.1 70.6 47.9 127.1 52.1 209.2 99.2 237.5"></polygon>
                        <polygon id="Shape" fill="#2D302D" points="180.9 88.9 198.7 24.4 2.3 118.6 50.9 169.1"></polygon>
                        <polygon id="Shape" fill="#2D302D" points="178.8 91 224.6 66.9 192.5 217.6 157.5 181.3"></polygon>
                        <polygon id="Shape" fill="#2D302D" points="161.4 177.6 186 223.9 55.2 279.9 66.4 224.1"></polygon>
                        <polygon id="Shape" fill="#2D302D" points="71.2 218.7 61.2 157.1 0.1 144.8 23.9 289.1"></polygon>
                    </g>
                </g>
            </g>
        </g>
    </g>
</svg>