<?xml version="1.0" encoding="UTF-8" standalone="no"?>
<svg width="584px" height="1022px" viewBox="0 0 584 1022" version="1.1" xmlns="http://www.w3.org/2000/svg" xmlns:xlink="http://www.w3.org/1999/xlink">
    <!-- Generator: Sketch 44 (41411) - http://www.bohemiancoding.com/sketch -->
    <title>Left Speaker</title>
    <desc>Created with Sketch.</desc>
    <defs></defs>
    <g id="Page-1" stroke="none" stroke-width="1" fill="none" fill-rule="evenodd">
        <g id="landing_page" transform="translate(0.000000, -1536.000000)" fill-rule="nonzero">
            <g id="Left-Speaker" transform="translate(0.000000, 1536.000000)">
                <path d="M567.3,13.7 C567.3,13.7 253.2,-81.3 0,240.5 L94.7,219.1 L567.3,13.7 Z" id="Shape" fill="#121212"></path>
                <path d="M256.6,1021.7 L90.2,196.7 C90.2,196.7 267.8,-45.3 567.3,13.8 L583.7,956 L256.6,1021.7 Z" id="Shape" fill="#353535"></path>
                <polygon id="Shape" fill="#121212" points="168.1 1016.4 0 240.4 90.2 196.6 256.6 1021.7"></polygon>
                <path d="M447.8,284.2 C465.1,376.7 434.6,461 379.9,472.7 C325.1,484.4 266.7,418.9 249.5,326.4 C232.3,233.9 262.7,149.6 317.4,137.9 C372.2,126.2 430.6,191.7 447.8,284.2 Z" id="Shape" stroke="#000000" stroke-width="9.7467" fill="#A3A3A3"></path>
                <path d="M487,706.7 C500.9,781 476.4,848.9 432.4,858.3 C388.4,867.7 341.4,815 327.5,740.7 C313.6,666.4 338.1,598.5 382.1,589.1 C426.1,579.7 473.1,632.3 487,706.7 Z" id="Shape" stroke="#000000" stroke-width="7.8378" fill="#A3A3A3"></path>
            </g>
        </g>
    </g>
</svg>